<?xml version="1.0" standalone="no"?>
<!DOCTYPE svg PUBLIC "-//W3C//DTD SVG 20010904//EN"
 "http://www.w3.org/TR/2001/REC-SVG-20010904/DTD/svg10.dtd">
<svg version="1.0" xmlns="http://www.w3.org/2000/svg"
 width="724.000000pt" height="176.000000pt" viewBox="0 0 724.000000 176.000000"
 preserveAspectRatio="xMidYMid meet">

<g transform="translate(0.000000,176.000000) scale(0.100000,-0.100000)"
fill="#000000" stroke="none">
<path d="M1338 1750 c-73 -12 -193 -52 -266 -89 -195 -100 -345 -326 -368
-556 -6 -61 -8 -65 -28 -59 -12 4 -66 7 -121 7 -176 0 -287 -43 -396 -152
-178 -178 -207 -447 -70 -659 78 -120 171 -188 307 -222 75 -19 113 -20 1328
-20 1362 0 1303 -2 1418 56 146 74 248 245 248 414 0 264 -138 438 -383 485
-43 8 -99 15 -123 15 l-44 0 0 51 c0 57 -18 129 -32 129 -5 0 -25 -12 -44 -27
-33 -25 -35 -29 -28 -67 8 -50 8 -138 -1 -165 -6 -19 -2 -20 82 -14 154 10
280 -34 368 -128 66 -71 96 -142 102 -243 12 -188 -75 -314 -261 -382 l-67
-24 -1232 0 c-1356 0 -1299 -2 -1419 62 -76 40 -150 122 -179 196 -18 46 -23
78 -23 163 -1 105 -1 106 42 191 79 161 222 248 408 248 42 0 198 -25 228 -36
14 -5 16 4 16 77 1 254 125 468 335 576 113 58 180 75 294 75 164 0 306 -53
419 -156 55 -50 136 -163 161 -224 l13 -30 41 31 c23 18 71 46 107 62 59 27
75 30 165 30 93 0 104 -2 163 -33 35 -18 84 -51 108 -74 l44 -40 44 33 44 34
-21 24 c-36 39 -139 108 -197 132 -47 20 -73 23 -175 23 -112 1 -125 -2 -200
-32 l-80 -32 -19 28 c-39 56 -194 198 -256 235 -130 75 -308 110 -452 87z"/>
<path d="M2909 1500 c-74 -22 -113 -80 -107 -160 l3 -48 -323 -250 -323 -251
-36 16 c-21 8 -53 13 -73 10 l-35 -4 -123 183 -122 184 16 33 c21 40 21 105 0
145 -49 94 -196 97 -257 6 -34 -51 -21 -155 24 -192 12 -10 -2 -54 -92 -286
l-106 -274 -50 -6 c-48 -5 -52 -4 -87 32 -36 35 -37 39 -27 73 33 105 -62 214
-169 194 -78 -15 -126 -79 -121 -163 l3 -46 -112 -88 -112 -88 -30 15 c-94 49
-210 -26 -210 -135 0 -115 129 -190 220 -127 56 38 74 70 74 136 l1 59 110 85
c110 84 111 85 140 70 21 -12 45 -14 91 -9 l62 6 35 -42 c27 -32 33 -46 26
-60 -5 -9 -9 -33 -9 -53 0 -142 166 -205 259 -100 51 58 50 135 0 200 l-21 25
103 266 c105 273 112 284 163 284 8 0 68 -83 135 -185 113 -174 120 -187 107
-208 -15 -22 -20 -59 -18 -110 1 -17 17 -44 40 -68 64 -69 158 -66 223 9 28
32 30 40 27 94 l-3 59 323 250 c317 246 324 250 354 240 116 -41 226 35 215
148 -10 92 -103 157 -188 131z m88 -92 c33 -30 31 -80 -3 -107 -30 -24 -43
-26 -78 -10 -33 15 -50 57 -37 91 19 50 78 63 118 26z m-1292 -73 c14 -13 25
-36 25 -50 0 -33 -42 -75 -75 -75 -33 0 -75 42 -75 75 0 14 11 37 25 50 13 14
36 25 50 25 14 0 37 -11 50 -25z m-605 -525 c25 -25 26 -81 3 -103 -10 -8 -30
-19 -45 -22 -22 -6 -33 -1 -59 24 -25 25 -30 37 -25 59 14 58 86 82 126 42z
m1019 -96 c34 -44 24 -86 -27 -113 -28 -15 -77 1 -92 30 -42 77 65 151 119 83z
m-734 -199 c48 -48 20 -125 -45 -125 -33 0 -80 38 -80 64 0 27 22 64 44 74 34
17 55 14 81 -13z m-731 -88 c14 -39 -3 -78 -40 -93 -38 -16 -71 -2 -94 39 -13
24 -13 30 0 54 34 60 113 59 134 0z"/>
<path d="M3709 767 c-18 -12 -44 -38 -57 -57 -22 -34 -23 -41 -20 -195 3 -150
4 -162 27 -194 45 -62 80 -71 305 -71 183 0 203 2 243 21 29 14 52 35 69 65
25 42 25 47 22 197 -3 149 -4 155 -30 189 -48 63 -70 68 -311 68 -206 0 -215
-1 -248 -23z m455 -113 c13 -12 16 -40 16 -134 0 -157 10 -150 -215 -150 -225
0 -215 -7 -215 150 0 94 3 122 16 134 23 24 375 24 398 0z"/>
<path d="M4360 520 l0 -270 60 0 60 0 0 181 c0 99 4 179 8 177 5 -1 80 -83
167 -180 l158 -178 64 0 63 0 0 270 0 270 -60 0 -60 0 0 -175 c0 -103 -4 -175
-9 -175 -6 0 -80 79 -167 175 l-157 175 -63 0 -64 0 0 -270z"/>
<path d="M5000 520 l0 -270 285 0 285 0 0 60 0 60 -225 0 -225 0 0 45 0 45
210 0 210 0 0 60 0 60 -210 0 -210 0 0 45 0 45 225 0 225 0 0 60 0 60 -285 0
-285 0 0 -270z"/>
<path d="M5950 520 l0 -270 60 0 60 0 0 270 0 270 -60 0 -60 0 0 -270z"/>
<path d="M6630 730 l0 -60 120 0 120 0 0 -210 0 -210 65 0 65 0 0 210 0 210
120 0 120 0 0 60 0 60 -305 0 -305 0 0 -60z"/>
<path d="M6175 628 c-42 -32 -55 -76 -55 -178 0 -107 15 -151 62 -180 30 -19
46 -20 201 -18 l169 3 34 37 34 38 0 121 0 121 -39 39 -39 39 -169 0 c-160 0
-172 -1 -198 -22z m353 -167 c2 -60 -1 -98 -9 -107 -15 -19 -279 -20 -297 -2
-16 16 -16 180 0 196 9 9 53 12 158 10 l145 -3 3 -94z"/>
</g>
</svg>
